<svg xmlns="http://www.w3.org/2000/svg" version="1.1" xmlns:xlink="http://www.w3.org/1999/xlink" width="1000" height="1000"><g clip-path="url(#SvgjsClipPath1120)"><rect width="1000" height="1000" fill="#1c1548" data-darkreader-inline-fill="" style="--darkreader-inline-fill: var(--darkreader-background-1c1548, #16113a);"></rect><g transform="matrix(0.6481481481481481,0,0,0.6481481481481481,150,150)"><svg xmlns="http://www.w3.org/2000/svg" version="1.1" xmlns:xlink="http://www.w3.org/1999/xlink" width="1080" height="1080"><svg xmlns="http://www.w3.org/2000/svg" version="1.1" viewBox="0 0 1080 1080">
  <defs>
    <style>
      .cls-1 {
        fill: #130a2b;
      }

      .cls-2 {
        fill: #7019f9;
      }
    </style><style class="darkreader darkreader--sync" media="screen"></style>
  <clipPath id="SvgjsClipPath1120"><rect width="1000" height="1000" x="0" y="0" rx="350" ry="350"></rect></clipPath></defs>
  <!-- Generator: Adobe Illustrator 28.7.1, SVG Export Plug-In . SVG Version: 1.2.0 Build 142)  -->
  <g>
    <g id="Layer_1">
      <rect class="cls-1" width="1080" height="1080"></rect>
      <path class="cls-2" d="M397.32,590.4c-1.46-3.08-3.23-4.94-5.31-5.58-2.09-.63-4.95-.23-8.58,1.23-8.9,3.63-17.88,5.45-26.96,5.45-15.07,0-25.87-3.68-32.4-11.03-6.54-7.35-9.8-19.83-9.8-37.45s3.13-30.32,9.39-37.58c6.26-7.26,16.84-10.89,31.73-10.89,9.44,0,18.15,1.63,26.14,4.9,3.63,1.46,6.54,1.86,8.72,1.22,2.18-.63,3.9-2.49,5.17-5.58l11.16-24.24c1.27-3.27,1.54-5.76.82-7.49-.73-1.72-2.63-3.58-5.72-5.58-14.53-9.62-33.32-14.43-56.37-14.43-28.87,0-51.29,8.08-67.27,24.24-15.98,16.16-23.96,41.3-23.96,75.44s8.17,59.05,24.51,75.3c16.34,16.25,39.04,24.37,68.08,24.37,23.42,0,42.49-4.9,57.19-14.7,3.08-2,4.99-3.86,5.72-5.58.72-1.72.45-4.22-.82-7.49l-11.44-24.51Z"></path>
      <path class="cls-2" d="M495.39,443.34h-60.73c-6.53,0-9.8,3.27-9.8,9.8v173.2c0,6.54,3.27,9.8,9.8,9.8h60.73c31.95,0,55.69-7.71,71.21-23.15,15.52-15.43,23.29-39.85,23.29-73.26s-7.76-57.82-23.29-73.26c-15.52-15.43-39.26-23.15-71.21-23.15ZM521.27,575.28c-5.81,6.45-15.35,9.67-28.6,9.67h-8.44v-90.41h8.44c13.25,0,22.78,3.22,28.6,9.67,5.81,6.45,8.71,18.29,8.71,35.54s-2.91,29.1-8.71,35.54Z"></path>
      <path class="cls-2" d="M729.58,587.13h-66.99v-25.33h61.27c6.35,0,9.53-3.17,9.53-9.53v-27.51c0-6.53-3.18-9.8-9.53-9.8h-61.27v-22.6h65.36c6.54,0,9.81-3.27,9.81-9.8v-29.41c0-6.54-3.27-9.8-9.81-9.8h-113.83c-6.53,0-9.8,3.27-9.8,9.8v173.2c0,6.54,3.27,9.8,9.8,9.8h115.47c6.53,0,9.8-3.27,9.8-9.8v-29.41c0-6.54-3.27-9.8-9.8-9.8Z"></path>
      <path class="cls-2" d="M1040.7,615.09l-142.19-111.77c-2.84-2.23-5.53-3.09-8.05-2.58-2.52.51-4.35,2.29-5.5,5.35l-14.72,39.27c-2.29,6.12-.89,10.91,4.21,14.37l66.97,46.34,37.64,23.71-.38,1.02-43.95-6.88-80.93-9.11c-6.12-.74-10.33,1.95-12.62,8.06l-14.72,39.27c-1.15,3.06-.94,5.61.62,7.65,1.56,2.04,4.15,3.16,7.76,3.35l180.63,9.26c6.15.17,10.23-2.46,12.27-7.91l17.02-45.39c2.04-5.44.69-10.11-4.05-14.02Z"></path>
      <path class="cls-2" d="M886.42,446.6c-1.27-2.18-3.81-3.27-7.62-3.27h-32.66c-5.99,0-10.07,2.72-12.25,8.17l-71.36,173.2c-1.46,3.27-1.54,5.99-.27,8.17,1.27,2.18,3.81,3.27,7.62,3.27h32.66c5.99,0,10.07-2.73,12.25-8.18l71.35-173.2c1.45-3.27,1.54-5.98.27-8.16Z"></path>
      <path class="cls-2" d="M245.63,447.9l11.42-40.35c.89-3.15.47-5.67-1.25-7.57-1.72-1.9-4.4-2.8-8.01-2.69l-180.77,5.72c-6.14.34-9.99,3.3-11.58,8.9l-13.2,46.64c-1.58,5.59.15,10.13,5.2,13.64l150.96,99.62c3.02,1.99,5.77,2.62,8.23,1.9,2.47-.71,4.15-2.65,5.04-5.79l11.42-40.35c1.78-6.29-.01-10.95-5.38-13.98l-23.74-13.67,14.93-43.66,24.82.73c6.16.23,10.13-2.79,11.91-9.08ZM157.4,478.86l-10.27-5.92-39.48-20.51.3-1.05,44.37,3.22,13.25.39-8.17,23.87Z"></path>
    </g>
  </g>
</svg></svg></g></g></svg>